<?xml version="1.0" encoding="utf-8"?>
<!-- Generator: Adobe Illustrator 23.1.1, SVG Export Plug-In . SVG Version: 6.00 Build 0)  -->
<svg version="1.0" id="Layer_1" xmlns="http://www.w3.org/2000/svg" xmlns:xlink="http://www.w3.org/1999/xlink" x="0px" y="0px" viewBox="0 0 28 43" style="enable-background:new 0 0 28 43;" xml:space="preserve">
<path d="M11.7,13.9c0-1.2,1-2.3,2.2-2.3s2.3,1,2.3,2.2c0,1.2-1,2.3-2.2,2.3c0,0,0,0,0,0C12.8,16.1,11.8,15.1,11.7,13.9z M14,8.1c-3.2,0-5.8,2.7-5.8,5.9s2.7,5.8,5.9,5.8c3.2,0,5.8-2.6,5.8-5.8C19.9,10.7,17.2,8,14,8.1C14,8.1,14,8.1,14,8.1z M0,13.6 c0,9.1,10.9,16.2,11.7,26.7v0.5c0,1.2,1,2.3,2.3,2.3s2.3-1,2.3-2.3v-0.5C17.2,29.8,28,22.8,28,13.6C27.9,6,21.6-0.1,14,0 C6.4-0.1,0.1,6,0,13.6z M14,4.5c5.2,0,9.4,4.3,9.3,9.5c0,5.2-4.3,9.4-9.5,9.3c-5.2,0-9.3-4.2-9.3-9.4C4.5,8.7,8.8,4.5,14,4.5 C14,4.5,14,4.5,14,4.5z"/>
</svg>
