<svg data-name="Layer 1" xmlns="http://www.w3.org/2000/svg" viewBox="0 0 36.1 36.1"><path d="M18 0C11.6 0 5.2 1.1 2.8 3.4.9 5.3.2 8.7 0 10.8v.3a1.54 1.54 0 001.5 1.5c.1 0 3.7-.3 5.9-.5h.2a1.54 1.54 0 001.5-1.5v-3A1.47 1.47 0 0110.7 6h14.7A1.67 1.67 0 0127 7.7v3a1.54 1.54 0 001.5 1.5h.2c2.2.2 5.8.5 5.9.5a1.54 1.54 0 001.5-1.5v-.3c-.2-2.1-.9-5.5-2.8-7.4C30.8 1.1 24.4 0 18 0zm0 19.5a3 3 0 103 3 2.95 2.95 0 00-3-3zm-2.3-6.8v-1.9a1.9 1.9 0 00-1.9-1.9 1.84 1.84 0 00-1.8 2v1.9L1.9 23.6a3.69 3.69 0 00-1.1 2.7v3a3 3 0 003 3h.8v1.9a1.9 1.9 0 001.9 1.9 1.84 1.84 0 001.9-1.9v-1.9h19.5v1.9a1.9 1.9 0 103.8 0v-1.9h.8a3 3 0 003-3v-3a3.69 3.69 0 00-1.1-2.7L24 12.7v-1.9a1.9 1.9 0 00-1.9-1.9 1.84 1.84 0 00-1.9 1.9v1.9zm2.3 3.8a6 6 0 11-6 6 6 6 0 016-6z" fill="#ffd74b"/></svg>