<?xml version="1.0" encoding="utf-8"?>
<!-- Generator: Adobe Illustrator 23.1.1, SVG Export Plug-In . SVG Version: 6.00 Build 0)  -->
<svg version="1.0" id="Layer_1" xmlns="http://www.w3.org/2000/svg" xmlns:xlink="http://www.w3.org/1999/xlink" x="0px" y="0px" viewBox="0 0 25 19" style="enable-background:new 0 0 25 19;" xml:space="preserve">
<g>
<path class="menu" d="M1.5,7h22C24.3,7,25,6.3,25,5.5S24.3,4,23.5,4h-22C0.7,4,0,4.7,0,5.5S0.7,7,1.5,7z"/>
<path class="menu" d="M23.5,12h-22C0.7,12,0,12.7,0,13.5S0.7,15,1.5,15h22c0.8,0,1.5-0.7,1.5-1.5S24.3,12,23.5,12z"/>
</g>
<path class="menu-close" d="M13.9,9.5l7.8-7.8c0.4-0.4,0.4-1,0-1.4s-1-0.4-1.4,0l-7.8,7.8L4.7,0.3c-0.4-0.4-1-0.4-1.4,0s-0.4,1,0,1.4 l7.8,7.8l-7.8,7.8c-0.4,0.4-0.4,1,0,1.4v0c0.4,0.4,1,0.4,1.4,0l7.8-7.8l7.8,7.8c0.4,0.4,1,0.4,1.4,0v0c0.4-0.4,0.4-1,0-1.4L13.9,9.5 z"/>
</svg>
